{"title":"Burlesque.2010.720p.BRRip.x264.Feel-Free","uid":6169484,"size":2012018287,"categoryP":"video","categoryS":"hd___movies","magnet":"?xt=urn:btih:f1b1c990963f86f5a1c1ebea77194083372a752a&amp;dn=Burlesque.2010.720p.BRRip.x264.Feel-Free&amp;tr=udp%3A%2F%2Ftracker.openbittorrent.com%3A80&amp;tr=udp%3A%2F%2Fopen.demonii.com%3A1337&amp;tr=udp%3A%2F%2Ftracker.coppersurfer.tk%3A6969&amp;tr=udp%3A%2F%2Fexodus.desync.com%3A6969","seeders":5,"leechers":1,"uploader":"hiest","files":-1,"time":1297471074,"description":"Genre:Drama | Musical | Romance\nLanguage:English\nIMDb:http://akas.imdb.com/title/tt1126591/\nSource:.BluRay.x264-Felony\nSubtitles:Romana\n\n\nFormat : MPEG-4\nFormat profile : Base Media\nCodec ID : isom\nFile size : 1.87 GiB\nDuration : 1h 58mn\nOverall bit rate : 2 251 Kbps\n\n\nVideo\nFormat settings, CABAC : Yes\nFormat settings, ReFrames : 3 frames\nFormat settings, GOP : M=1, N=13\nCodec ID : avc1\nCodec ID/Info : Advanced Video Coding\nDuration : 1h 58mn\nBit rate mode : Variable\nBit rate : 1 765 Kbps\nMaximum bit rate : 9 293 Kbps\nWidth : 1 280 pixels\nHeight : 544 pixels\nDisplay aspect ratio : 2.35:1\nFrame rate mode : Constant\nFrame rate : 23.976 fps\nColor space : YUV\nChroma subsampling : 4:2:0\nBit depth : 8 bits\nScan type : Progressive\nBits/(Pixel*Frame) : 0.106\nStream size : 1.50 GiB (80%)\nWriting library : x264\n\nAudio\nID : 2\nFormat : AAC\nFormat/Info : Advanced Audio Codec\nFormat version : Version 4\nFormat profile : LC\nFormat settings, SBR : No\nCodec ID : 40\nDuration : 1h 58mn\nBit rate mode : Variable\nBit rate : 443 Kbps\nMaximum bit rate : 526 Kbps\nChannel(s) : 6 channels\nChannel positions : Front: L C R, Side: L R, LFE\nSampling rate : 48.0 KHz\nStream size : 377 MiB (20%)\n\n\nPlot:\nA small-town girl ventures to Los Angeles and finds her place in a neo-burlesque club run by a former dancer\n\n\n\n\n\n================================== &lt;a href=&quot;\nhttp://thepiratebay.se/user/hiest&quot; rel=&quot;nofollow&quot; target=&quot;_NEW&quot;&gt;\nhttp://thepiratebay.se/user/hiest&lt;/a&gt;\n==================================\n\n\n\n\n\nScreenshots:\n &lt;a href=&quot;\nhttp://www.rapidhdd.com/images/53205vlcsnap-00003.png&quot; rel=&quot;nofollow&quot; target=&quot;_NEW&quot;&gt;\nhttp://www.rapidhdd.com/images/53205vlcsnap-00003.png&lt;/a&gt;\n &lt;a href=&quot;\nhttp://www.rapidhdd.com/images/997083vlcsnap-00005.png&quot; rel=&quot;nofollow&quot; target=&quot;_NEW&quot;&gt;\nhttp://www.rapidhdd.com/images/997083vlcsnap-00005.png&lt;/a&gt;\n &lt;a href=&quot;\nhttp://rapidhdd.com/images/345611vlcsnap-00001.png&quot; rel=&quot;nofollow&quot; target=&quot;_NEW&quot;&gt;\nhttp://rapidhdd.com/images/345611vlcsnap-00001.png&lt;/a&gt;\n &lt;a href=&quot;\nhttp://www.rapidhdd.com/images/9651vlcsnap-00004.png&quot; rel=&quot;nofollow&quot; target=&quot;_NEW&quot;&gt;\nhttp://www.rapidhdd.com/images/9651vlcsnap-00004.png&lt;/a&gt;","torrent":{"xt":"urn:btih:f1b1c990963f86f5a1c1ebea77194083372a752a","amp;dn":"Burlesque.2010.720p.BRRip.x264.Feel-Free","amp;tr":["udp%3A%2F%2Ftracker.openbittorrent.com%3A80","udp%3A%2F%2Fopen.demonii.com%3A1337","udp%3A%2F%2Ftracker.coppersurfer.tk%3A6969","udp%3A%2F%2Fexodus.desync.com%3A6969"],"infoHash":"f1b1c990963f86f5a1c1ebea77194083372a752a","infoHashBuffer":{"type":"Buffer","data":[241,177,201,144,150,63,134,245,161,193,235,234,119,25,64,131,55,42,117,42]},"announce":[],"urlList":[]}}